<?xml version="1.0" standalone="no"?>
<!DOCTYPE svg PUBLIC "-//W3C//DTD SVG 1.1//EN" "http://www.w3.org/Graphics/SVG/1.1/DTD/svg11.dtd" >
<svg xmlns="http://www.w3.org/2000/svg">
<metadata>Generated by IcoMoon</metadata>
<defs>
<font id="icon-graphic" horiz-adv-x="512">
<font-face units-per-em="512" ascent="480" descent="-32" />
<missing-glyph horiz-adv-x="512" />
<glyph unicode="&#x20;" d="" horiz-adv-x="256" />
<glyph unicode="&#xe620;" d="M511.519 270.745c0 0 1.609-1.193-3.637 9.333-5.271 10.561-30.404 11.727-39.3 12.579-8.965 0.799-9.771-14.979-9.771-14.979l-10.936-0.438c-3.469 8.212-7.515 16.322-11.782 24.073-5.402-3.122-11.169-5.681-17.236-7.557 5.961-10.805 12.066-22.688 17.669-35.132 0 0-137.787 4.435-179.945 4.829h-2.428c-42.151-0.381-179.973-4.829-179.973-4.829 18.741 41.619 43.096 77.046 48.785 86.372 0.95 1.547 3.067 2.554 3.948 2.671 34.415 3.81 128.029 4.559 128.029 4.559h0.84c0 0 26.715-0.22 56.854-1.003-1.612 5.604-2.66 11.441-3.078 17.453-28.417 0.902-53.378 1.41-53.378 1.41h-0.368c0 0-119.946-2.442-133.316-6.12 0 0-4.871-2.449-6.891-4.434-2.032-2.047-34.063-40.959-51.499-82.291l-10.941 0.438c0 0-0.826 15.757-9.734 14.979-8.924-0.854-34.048-2.019-39.335-12.579-5.26-10.525-3.607-9.333-3.607-9.333s-2.443-5.669 3.607-6.835c6.1-1.235 38.127-5.272 50.276-8.923 0 0-8.499-14.6-13.772-29.232-5.28-14.605-7.702-15.361-9.36-20.268 0 0-0.784-2.025-1.18-6.521-0.43-4.406 4.843-169.813 4.843-169.813s-0.409-13.322 8.908-13.322c9.326 0 41.75 0 41.75 0s6.911 3.191 6.911 10.061c0 6.896 0.805 15.029 0.805 15.029h325.405c0 0 0.819-8.104 0.819-15.029 0-6.867 6.869-10.061 6.869-10.061s32.417 0 41.756 0 8.951 13.322 8.951 13.322 5.229 165.428 4.828 169.813c-0.374 4.496-1.193 6.52-1.193 6.52-1.609 4.905-4.079 5.643-9.325 20.269-5.271 14.62-13.766 29.232-13.766 29.232 12.129 3.648 44.156 7.688 50.232 8.923 6.107 1.15 3.666 6.834 3.666 6.834zM128.488 163.428c0 0-0.736-2.305-3.227-2.109-2.54 0.207-42.985 2.971-56.468 6.203-13.53 3.262-20.565 8.617-21.627 25.664 0 0-0.063 10.9 0.264 12.691 0.285 1.888 8.104 18.941 24.306 13.57 16.222-5.447 41.077-17.326 41.077-17.326s12.434-6.182 15.675-30.021v-8.672zM463.822 205.848c0.317-1.789 0.29-12.688 0.29-12.688-1.081-17.049-8.090-22.404-21.605-25.666-13.53-3.232-53.954-5.996-56.521-6.203-2.54-0.195-3.222 2.109-3.222 2.109v8.674c3.222 23.854 15.653 30.020 15.653 30.020s24.868 11.88 41.090 17.32c16.252 5.377 24.024-11.68 24.315-13.566zM393.915 432.17c-31.803 0-57.587-25.783-57.587-57.585s25.784-57.586 57.587-57.586 57.586 25.783 57.586 57.585c0 31.803-25.783 57.586-57.586 57.586zM418.162 370.039h-19.701v-19.701h-9.092v19.701h-19.7v9.092h19.7v19.7h9.092v-19.701h19.701v-9.091z" />
<glyph unicode="&#xe621;" d="M255.994 480c-141.376 0-255.978-114.606-255.978-255.985 0-141.405 114.602-256.015 255.978-256.015 141.391-0.001 255.99 114.61 255.99 256.015 0 141.379-114.599 255.985-255.99 255.985zM420.882 321.326c0.005-22.25-0.822-41.429-2.185-57.969l-86.295 112.926h88.479l0.001-54.957zM409.85 205.404c-2.061-8.276-4.214-14.974-6.261-20.323-8.816-23.061-18.816-39.892-26.944-51.26-8.129 11.368-18.136 28.197-26.954 51.258-7.364 19.228-16.046 55.665-17.167 121.592l77.326-101.267zM85.502 77c-34.026 39.438-54.608 90.809-54.608 147.019 0 124.313 100.778 225.087 225.087 225.087 42.449 0 82.146-11.748 116.034-32.167l-0.105-0.119h-64.637c0 0 0-24.36 0-48.834l-0.119-0.088h-120.491c0 0 0-24.358 0-48.83l-0.026-0.088h-120.538c0 0 0-77.375 0-94.867 0-17.497-0.232-95.793 18.954-145.883 0.149-0.396 0.3-0.791 0.451-1.183l-0.002-0.047zM211.792 327.341v0.021h88.478v-54.956c0.004-22.258-0.821-41.442-2.183-57.993l-86.295 112.928zM289.243 156.456c-2.062-8.283-4.213-14.979-6.263-20.334-8.813-23.026-18.814-39.854-26.943-51.222-8.135 11.367-18.141 28.19-26.95 51.218-7.371 19.232-16.048 55.689-17.171 121.604l77.327-101.266zM91.228 278.443h88.479v-54.958c0.004-22.257-0.821-41.441-2.179-57.988l-86.3 112.946zM108.52 87.198c-7.368 19.23-16.042 55.667-17.167 121.612l77.332-101.268c-2.063-8.285-4.214-14.986-6.266-20.341-8.815-23.029-18.815-39.854-26.948-51.224-8.13 11.371-18.135 28.196-26.951 51.221zM255.982-1.11c-35.731 0-69.509 8.327-99.521 23.145l-0.042 0.146c9.213 13.003 20.028 31.462 29.458 56.048 7.301 19.054 11.791 42.185 14.555 64.498l0.062-0.059c1.533-5.389 3.232-10.595 5.119-15.522 20.324-53.090 47.16-77.629 50.354-80.313h0.080c3.194 2.685 30.028 27.224 50.394 80.313 7.291 19.019 11.777 42.101 14.541 64.408l0.11 0.119c1.535-5.411 3.238-10.627 5.133-15.604 20.319-53.089 47.156-77.63 50.35-80.311h0.081c3.195 2.681 30.030 27.222 50.395 80.311 19.198 50.128 18.962 128.387 18.962 145.881v22.71l0.222-0.292c22.063-34.81 34.839-76.085 34.839-120.348-0.003-124.348-100.776-225.13-225.092-225.13z" />
<glyph unicode="&#xe622;" d="M255.885 320.388l-255.885 0.043 34.47-48.663c3.779-20.669 12.694-69.053 14.093-75.712 0.233-1.168 0.465-2.279 0.684-3.367 2.978-14.953 4.793-23.963 34.047-30.918 38.959-9.235 128.062-27.205 172.604-34.201h0.015c44.554 6.996 133.798 24.966 172.758 34.201 29.269 6.953 31.056 15.965 34.062 30.918 0.212 1.088 0.431 2.199 0.687 3.367 1.494 7.141 11.931 63.969 14.091 75.712l34.489 48.663-256.115-0.043zM457.62 272.415c-1.2-7.11-10.554-62.714-12.715-75.303-2.694-15.797-4.539-22.951-19.826-26.906-24.844-6.466-88.267-20.813-169.054-33.779v-0.016c-80.985 12.97-144.254 27.329-169.085 33.795-15.297 3.955-17.123 11.109-19.819 26.907-1.315 7.702-5.927 34.99-12.734 75.358l-27.154 38.802h457.571l-27.184-38.858zM258.928 297.251h70.588v-29.146h-70.588v29.146zM258.928 253.813h70.588v-10.587h-70.588v10.587zM182.771 219.472h70.599v-10.477h-70.599v10.477zM182.738 156.911c11.538-2.152 25.281-4.602 41.571-7.52 8.898-1.604 18.67-3.35 29.036-5.115l0.026 50.386h-70.599l-0.034-37.751zM98.584 277.313h5.95l-8.828 14.814h152.553v-14.602h5.112v19.7h-207.349l3.604-5.098 42.714-4.341zM81.651 180.385l36.275-3.974c1.103-1.35 2.499-2.583 4.387-3.768l55.079-0.033v12.336h-99.488c0.922-2.049 2.083-3.468 3.747-4.561zM258.843 144.619c7.757 1.387 15.431 2.644 22.454 3.778 5.866 1.004 11.627 2.014 17.247 3.023 0.367 0.063 0.735 0.129 1.099 0.195 25.73 4.617 48.771 9.184 68.241 13.293 15.483 3.748 22.151 6.771 25.826 10.873l34.749 3.604c2.635 1.201 4.3 2.773 5.533 5.363h-175.090l-0.059-40.129zM264.016 179.653h126.119c-6.008-7.079-23.271-10.834-102.804-25.055-7.097-1.271-15.188-2.272-23.315-3.736v28.791zM258.928 208.966h5.111v14.856h135.103c-0.179-1.45-1.441-11.46-1.897-14.784h5.152c0.479 3.51 0.948 7.193 1.414 10.917l37.857 3.909c0.282 1.665 0.566 3.358 0.854 5.070h-183.594v-19.968zM258.928 204.235h-0.050v-14.698l140.451 0.004c0.335 1.719 0.678 3.67 1.039 5.772l37.188 4.264c0.218 1.285 0.486 2.854 0.795 4.675l-179.423-0.017zM334.981 263.289h-0.052v-29.651l70.442 0.001c0.925 7.644 1.734 14.919 2.39 21l39.777 4.066 0.779 4.612-113.336-0.028zM62.1 272.809c0.281-1.658 0.556-3.29 0.827-4.902l40.374-4.324c0.151-1.646 0.314-3.463 0.467-5.080h149.676v14.306h-191.344zM66.151 248.798l39.322-4.458c0.389-3.516 0.803-7.201 1.238-10.957h5.137c-0.616 5.327-1.191 10.531-1.71 15.307h138.123v-15.051h5.111v20.146h-188.063c0.285-1.694 0.568-3.362 0.842-4.987zM334.931 289.143v-11.689l78.73 0.071 1.697 2.763 41.413 4.276 3.239 4.634zM70.328 224.062l38.027-4.433c0.925-7.369 1.878-14.498 2.804-20.505h0.258c0-0.004 0.002-0.011 0.002-0.016h65.974v29.797h-107.884c0.284-1.676 0.555-3.288 0.819-4.843z" />
<glyph unicode="&#xe623;" d="M511.518 301.788c0 0 1.609-1.193-3.637 9.332-5.273 10.561-30.404 11.727-39.3 12.579-8.965 0.799-9.77-14.979-9.77-14.979l-10.936-0.438c-17.457 41.332-49.458 80.244-51.51 82.291-2.026 1.998-6.857 4.434-6.857 4.434-13.377 3.678-133.33 6.12-133.33 6.12h-0.368c0 0-119.946-2.442-133.316-6.12 0 0-4.871-2.449-6.891-4.434-2.032-2.047-34.062-40.959-51.498-82.291l-10.941 0.438c0 0-0.826 15.757-9.734 14.979-8.924-0.854-34.048-2.019-39.335-12.579-5.259-10.525-3.607-9.332-3.607-9.332s-2.442-5.669 3.607-6.835c6.1-1.235 38.127-5.272 50.276-8.923 0 0-8.499-14.599-13.772-29.232-5.28-14.605-7.702-15.362-9.36-20.268 0 0-0.784-2.025-1.18-6.521-0.43-4.406 4.843-169.813 4.843-169.813s-0.408-13.322 8.909-13.322c9.326 0 41.75 0 41.75 0s6.911 3.191 6.911 10.061c0 6.896 0.805 15.029 0.805 15.029h325.403c0 0 0.819-8.104 0.819-15.029 0-6.869 6.869-10.061 6.869-10.061s32.417 0 41.756 0 8.951 13.322 8.951 13.322 5.23 165.428 4.828 169.813c-0.374 4.496-1.193 6.521-1.193 6.521-1.609 4.905-4.079 5.642-9.325 20.268-5.273 14.62-13.766 29.232-13.766 29.232 12.129 3.649 44.156 7.688 50.234 8.923 6.106 1.152 3.665 6.835 3.665 6.835zM128.489 194.47c0 0-0.736-2.304-3.227-2.109-2.54 0.208-42.984 2.97-56.467 6.203-13.53 3.261-20.565 8.617-21.627 25.665 0 0-0.063 10.901 0.264 12.691 0.285 1.887 8.104 18.942 24.306 13.571 16.222-5.447 41.076-17.326 41.076-17.326s12.434-6.182 15.675-30.022v-8.673zM254.152 294.495c-42.151-0.381-179.972-4.829-179.972-4.829 18.741 41.618 43.096 77.046 48.785 86.371 0.95 1.547 3.067 2.554 3.948 2.671 34.415 3.81 128.029 4.559 128.029 4.559h0.84c0 0 93.566-0.77 128.037-4.559 0.86-0.131 2.982-1.124 3.913-2.671 5.676-9.325 30.058-44.753 48.792-86.371 0 0-137.786 4.435-179.944 4.829h-2.428zM463.821 236.892c0.319-1.79 0.29-12.69 0.29-12.69-1.081-17.048-8.090-22.404-21.605-25.666-13.53-3.232-53.954-5.995-56.521-6.202-2.54-0.195-3.22 2.109-3.22 2.109v8.673c3.22 23.854 15.653 30.022 15.653 30.022s24.868 11.879 41.090 17.319c16.25 5.377 24.022-11.678 24.313-13.565z" />
<glyph unicode="&#xe624;" d="M293.247 316.209c-2.853-0.022-5.381-13.211-7.069-33.858l-63.473-0.044v-40.259h61.613c-0.107-5.837-0.173-11.848-0.194-18.054 0.021-6.163 0.065-12.205 0.17-18.042l-61.592-0.045v-40.28l63.451 0.022c1.69-20.691 4.213-33.858 7.046-33.858 63.608 0.023 106.114 31.739 115.63 73.881l103.171-0.044v36.723h-103.187c-9.508 42.118-51.976 73.836-115.566 73.858zM81.661 305.678c-45.092 0-81.661-36.579-81.661-81.673 0-45.104 36.569-81.679 81.661-81.679 45.113 0 81.681 36.575 81.681 81.679 0 45.092-36.569 81.673-81.681 81.673zM81.661 161.562c-34.419 0-62.422 28.015-62.422 62.443 0 34.426 28.002 62.431 62.422 62.431 34.431 0 62.441-28.006 62.441-62.431 0.001-34.434-28.011-62.443-62.441-62.443zM91.4 234.020l-7.098 35.109c0 2.922-2.362 5.304-5.304 5.305-2.921 0-5.304-2.384-5.304-5.305l-7.051-43.634c-0.028-0.118-0.056-0.237-0.080-0.357-0.031-0.149-0.051-0.302-0.078-0.453-0.051-0.292-0.103-0.586-0.135-0.885-0.020-0.171-0.024-0.346-0.037-0.517-0.017-0.233-0.044-0.463-0.049-0.698-0.001-0.059 0.006-0.115 0.006-0.173 0-0.035-0.006-0.071-0.006-0.105 0-0.14 0.017-0.277 0.021-0.417 0.010-0.292 0.018-0.584 0.044-0.871 0.017-0.169 0.045-0.334 0.066-0.501 0.038-0.287 0.075-0.575 0.132-0.857 0.029-0.154 0.071-0.305 0.106-0.457 0.068-0.291 0.137-0.578 0.222-0.859 0.039-0.135 0.090-0.264 0.135-0.396 0.1-0.296 0.2-0.588 0.32-0.873 0.044-0.106 0.096-0.209 0.143-0.314 0.135-0.303 0.275-0.604 0.431-0.896 0.042-0.076 0.089-0.15 0.131-0.227 0.175-0.312 0.358-0.62 0.558-0.916 0.031-0.048 0.065-0.091 0.099-0.137 0.22-0.32 0.449-0.631 0.696-0.931 0.016-0.021 0.032-0.037 0.048-0.058 1.381-1.662 3.147-2.99 5.173-3.844 0.006-0.003 0.011-0.005 0.017-0.007 0.396-0.165 0.8-0.314 1.214-0.442 0.042-0.014 0.084-0.024 0.124-0.035 0.379-0.115 0.764-0.216 1.155-0.297 0.088-0.020 0.178-0.029 0.266-0.047 0.35-0.063 0.7-0.123 1.058-0.162 0.141-0.014 0.283-0.019 0.426-0.028 0.25-0.020 0.498-0.048 0.751-0.055 0.064 0 0.127 0.007 0.19 0.007 0.038 0 0.074-0.007 0.113-0.007 0.144 0 0.283 0.019 0.426 0.023 0.28 0.009 0.561 0.017 0.837 0.042 0.205 0.020 0.403 0.052 0.604 0.079 0.049 0.007 0.099 0.012 0.149 0.020v-0.010l0.204 0.036c0.126 0.021 0.253 0.041 0.378 0.066 0.077 0.016 0.154 0.027 0.23 0.043l43.853 7.908c2.939-0.066 5.388 2.264 5.453 5.206 0.064 2.92-2.276 5.366-5.218 5.42v0 0.002l-35.419 6.505z" />
<glyph unicode="&#xe625;" d="M293.247 316.209c-2.853-0.022-5.381-13.211-7.069-33.858l-63.473-0.044v-40.259h61.613c-0.107-5.837-0.173-11.848-0.194-18.054 0.021-6.163 0.065-12.205 0.17-18.042l-61.592-0.045v-40.28l63.451 0.022c1.69-20.691 4.213-33.858 7.046-33.858 63.608 0.023 106.114 31.739 115.63 73.881l103.171-0.044v36.723h-103.187c-9.508 42.118-51.976 73.836-115.566 73.858zM164.742 221.542l-66.065-0.107 9.461-23.084-85.073-3.98-23.065 56.294 65.269-23.226-10.731 26.19z" />
<glyph unicode="&#xe626;" d="M293.247 316.209c-2.853-0.022-5.381-13.211-7.069-33.858l-63.473-0.044v-40.259h61.613c-0.107-5.837-0.173-11.848-0.194-18.054 0.021-6.163 0.065-12.205 0.17-18.042l-61.592-0.045v-40.28l63.451 0.022c1.69-20.691 4.213-33.858 7.046-33.858 63.608 0.023 106.114 31.739 115.63 73.881l103.171-0.044v36.723h-103.187c-9.508 42.118-51.976 73.836-115.566 73.858zM164.827 311.841c0.001 21.465-17.374 38.878-38.806 38.878-14.133 0-26.5-7.582-33.281-18.906-4.685 0.882-9.512 1.359-14.45 1.359-43.239 0.001-78.29-35.121-78.29-78.45 0-24.624 11.333-46.593 29.044-60.974 0 0 20.527-17.48 20.527-36.239h0.438c-4.909 0-8.924-3.82-8.924-8.499 0-4.669 4.017-8.501 8.924-8.501-4.909 0-8.924-3.826-8.924-8.5 0-4.675 4.017-8.5 8.924-8.5-4.909 0-8.924-3.829-8.924-8.504 0-4.674 4.017-8.498 8.924-8.498h4.859v-2.117c0-3.911 3.193-7.109 7.092-7.109h32.566c3.901 0 7.091 3.199 7.091 7.109v2.117h4.594c4.912 0 8.927 3.822 8.927 8.498 0 4.674-4.015 8.504-8.927 8.504 4.912 0 8.927 3.824 8.927 8.5 0 4.673-4.015 8.5-8.927 8.5 4.912 0 8.927 3.83 8.927 8.501 0 4.679-4.015 8.499-8.927 8.499h0.619c0 15.188 13.363 29.542 18.441 34.45 19.012 14.313 31.307 37.092 31.307 62.758 0 9.794-1.802 19.164-5.076 27.809 8.161 7.13 13.325 17.616 13.325 29.315zM126.021 341.561c16.355 0 29.662-13.331 29.662-29.719 0-16.394-13.306-29.728-29.662-29.728-16.352 0-29.655 13.333-29.655 29.728 0.003 16.387 13.304 29.719 29.655 29.719zM148.089 254.723c0-22.203-10.174-42.603-27.922-55.965l-0.416-0.313-0.377-0.363c-5.322-5.143-16.581-17.42-20.013-32.070h-17.013v42.856c0 2.338-1.91 4.251-4.239 4.251-2.336 0-4.244-1.913-4.244-4.251v-42.856h-16.821c-4.23 18.167-20.421 32.432-22.511 34.21l-0.074 0.064-0.075 0.064c-16.461 13.362-25.905 33.184-25.905 54.372 0 38.57 31.318 69.951 69.81 69.951 3.682 0 7.297-0.292 10.829-0.848-1.22-3.776-1.889-7.801-1.889-11.984 0-21.474 17.374-38.891 38.793-38.891 6.593 0 12.797 1.653 18.234 4.561 2.471-7.148 3.833-14.808 3.833-22.788zM118.839 312.33c-0.041-0.205-0.075-0.413-0.096-0.624-0.001-0.016-0.001-0.031-0.003-0.046-0.017-0.163-0.032-0.327-0.035-0.493-0.001-0.041 0.003-0.080 0.003-0.119 0-0.005 0-0.010 0-0.013 0-0.020 0.004-0.038 0.004-0.056 0.002-0.196 0.009-0.393 0.029-0.585 0.003-0.039 0.010-0.075 0.016-0.113 0.019-0.176 0.045-0.352 0.079-0.526 0.010-0.046 0.023-0.091 0.033-0.138 0.036-0.162 0.075-0.324 0.125-0.481 0.014-0.050 0.033-0.097 0.049-0.144 0.050-0.153 0.104-0.305 0.165-0.454 0.019-0.045 0.041-0.088 0.061-0.134 0.065-0.148 0.135-0.296 0.211-0.438 0.020-0.035 0.041-0.070 0.062-0.105 0.082-0.148 0.169-0.296 0.264-0.436 0.016-0.024 0.034-0.049 0.051-0.071 0.102-0.15 0.21-0.296 0.325-0.436 0.009-0.012 0.020-0.024 0.031-0.035 0.125-0.151 0.255-0.295 0.391-0.433 0.002-0.001 0.004-0.002 0.006-0.004 0.874-0.876 1.997-1.5 3.259-1.759 0.019-0.005 0.039-0.007 0.059-0.010 0.187-0.037 0.377-0.068 0.571-0.087 0.044-0.006 0.089-0.007 0.135-0.010 0.136-0.012 0.272-0.027 0.412-0.028 0.036-0.001 0.068 0.002 0.103 0.002 0.013 0 0.025-0.002 0.039-0.002 0.049 0 0.097 0.006 0.148 0.008 0.157 0.004 0.314 0.009 0.466 0.022 0.073 0.009 0.143 0.020 0.216 0.028 0.042 0.006 0.085 0.011 0.128 0.018v-0.007l0.129 0.023c0.047 0.008 0.094 0.017 0.141 0.026l0.057 0.009c0.008 0.003 0.015 0.004 0.023 0.005l20.866 3.775 0.112 5.056-16.824 3.098-3.374 16.717c0 1.386-1.123 2.522-2.521 2.522-1.384 0-2.519-1.136-2.519-2.522l-3.348-20.762c-0.019-0.073-0.034-0.148-0.049-0.221 0-0.009 0-0.014 0-0.017zM97.338 227.82h-38.466c-2.253 0-4.093-1.843-4.093-4.1v-0.296c0-2.255 1.84-4.102 4.093-4.102h38.466c2.252 0 4.093 1.848 4.093 4.102v0.296c0.002 2.257-1.841 4.1-4.093 4.1zM97.338 242.296h-38.466c-2.253 0-4.093-1.843-4.093-4.101v-0.294c0-2.257 1.84-4.102 4.093-4.102h38.466c2.252 0 4.093 1.846 4.093 4.102v0.294c0.002 2.258-1.841 4.101-4.093 4.101zM97.338 256.643h-38.466c-2.253 0-4.093-1.848-4.093-4.104v-0.293c0-2.258 1.84-4.102 4.093-4.102h38.466c2.252 0 4.093 1.844 4.093 4.102v0.293c0.002 2.256-1.841 4.104-4.093 4.104z" />
<glyph unicode="&#xe627;" d="M509.944 271.35h-170.341v32.896c0 1.854-1.504 3.358-3.354 3.358h-160.499c-1.852 0-3.353-1.504-3.353-3.358v-32.896h-122.088c-1.854 0-4.12-1.503-5.062-3.358l-44.836-87.99c-0.943-1.852-0.209-3.354 1.646-3.354h170.34v-32.898c0-1.852 1.501-3.354 3.353-3.354h160.498c1.852 0 3.354 1.502 3.354 3.354v32.898h122.090c1.853 0 4.119 1.502 5.063 3.354l44.833 87.989c0.945 1.855 0.207 3.359-1.644 3.359zM430.201 197.98h-111.604v-36.5h-125.082v36.5h-138.14l26.538 52.080h111.603v36.5h125.082v-36.499h138.142l-26.539-52.081z" />
<glyph unicode="&#xe628;" d="M511.992 310.045c-0.039 26.924-22.044 48.929-48.949 48.949l-98.543 0.006v40.5h-0.625c0 44.459-81.335 80.5-181.667 80.5s-181.667-36.041-181.667-80.5h-0.541v-351h0.541c0-44.459 81.335-80.5 181.667-80.5s181.667 36.041 181.667 80.5h0.625v37.658l98.509-0.006c0.017 0 0.035 0 0.052 0 26.912 0 48.891 21.996 48.939 48.837l-0.008 175.056zM184.5 342c-80.634 0-146 25.744-146 57.5s65.366 57.5 146 57.5 146-25.744 146-57.5-65.366-57.5-146-57.5zM463.061 127.152l-98.561 0.006v190.842l98.512-0.006c4.319-0.003 7.975-3.671 7.98-8.009l0.008-174.954c-0.026-4.273-3.654-7.879-7.939-7.879z" />
<glyph unicode="&#xe629;" d="M56.579 253.771v-271.717h142.34v170.804h113.867v-170.804h142.298v271.717l-199.256 126.808zM502.936 301.727l-24.526 15.832-23.019 15.35-0.056 56.288c0 10.943-8.911 19.827-19.86 19.827h-17.432c-10.95 0-19.778-8.883-19.833-19.84l0.027-18.13-0.070 0.042-142.312 94.85-246.786-163.548c-9.184-5.992-11.844-18.234-5.894-27.417l1.571-2.814c5.922-9.198 18.22-11.844 27.417-5.922l223.679 142.778 223.991-143.45c9.19-5.937 21.495-3.282 27.417 5.915l1.579 2.821c5.95 9.198 3.269 21.441-5.893 27.418z" />
<glyph unicode="&#xe62a;" d="M132.945 270.473h218.561v-30.956h-218.561v30.956zM132.945 145.846h161.037v-30.68h-161.037v30.68zM424.699 362.271l-95.453 95.978c-11.88 11.962-35.474 21.751-52.311 21.751h-180.557c-16.867 0-30.679-13.804-30.679-30.679v-450.641c0-16.867 13.812-30.68 30.679-30.68h319.243c16.898 0 30.68 13.813 30.68 30.68v311.153c0.030 16.875-9.707 40.469-21.602 52.438zM415.651-1.29h-319.257v450.611h180.016c-0.059-0.906-0.254-1.61-0.254-2.592v-103.633c0-18.306 14.965-33.278 33.256-33.278h103.634c0.943 0 1.707 0.143 2.575 0.202 0-0.060 0.030-0.135 0.030-0.202v-311.108zM132.945 208.103h218.561v-30.68h-218.561v30.68zM132.945 270.495h218.561v-30.956h-218.561v30.956z" />
<glyph unicode="&#xe62b;" d="M458.105 480h-404.21c-29.645 0-53.895-24.25-53.895-53.895v-404.211c0-29.643 24.25-53.894 53.895-53.894h404.211c29.643 0 53.894 24.251 53.894 53.895v404.21c0 29.645-24.251 53.895-53.895 53.895zM485.051 21.895c0-14.866-12.079-26.945-26.945-26.945h-404.211c-14.862 0-26.947 12.079-26.947 26.945v404.21c0 14.862 12.085 26.947 26.947 26.947l404.21 0.001c14.866 0 26.945-12.085 26.945-26.947v-404.211zM301.877 370.919c-7.604 7.656-22.703 13.92-33.479 13.92h-115.556c-10.794 0-19.634-8.834-19.634-19.634v-288.411c0-10.795 8.84-19.635 19.634-19.635h204.316c10.812 0 19.634 8.84 19.634 19.635v199.139c0.021 10.8-6.212 25.9-13.825 33.56l-61.090 61.426zM357.177 76.814h-204.324v288.392h115.209c-0.037-0.58-0.162-1.031-0.162-1.659v-66.325c0-11.716 9.578-21.298 21.283-21.298h66.326c0.604 0 1.092 0.091 1.648 0.129 0-0.038 0.019-0.086 0.019-0.129v-199.11zM176.245 184.6h139.878v-19.636h-139.878v19.636zM176.245 224.531h139.878v-19.813h-139.878v19.813zM176.245 144.755h103.063v-19.635h-103.063v19.635z" />
<glyph unicode="&#xe62c;" d="M94.127-32l90.334 221.498h-90.334l103.464 290.502h220.282l-167.419-186.805h102.482z" />
<glyph unicode="&#xe62d;" d="M499.174 236.823c-0.218 0-0.432-0.022-0.646-0.033-6.347 55.583-53.534 98.761-110.818 98.761-23.716 0-45.7-7.408-63.775-20.027-20.082 13.029-43.524 20.027-67.938 20.027-24.333 0-47.637-6.913-67.855-20.019-18.073 12.615-40.053 20.019-63.765 20.019-57.283 0-104.474-43.18-110.818-98.764-0.245 0.014-0.487 0.037-0.734 0.037-7.054 0-12.825-5.771-12.825-12.824s5.771-12.824 12.824-12.824c0.248 0 0.49 0.023 0.734 0.037 6.344-55.585 53.535-98.764 110.818-98.764 61.608 0 111.551 49.942 111.551 111.551 0 27.718-10.113 53.069-26.844 72.578 14.315 7.833 30.306 11.941 46.914 11.941 16.652 0 32.727-4.155 46.989-11.962-16.721-19.506-26.826-44.85-26.826-72.557 0-61.608 49.944-111.551 111.551-111.551 57.284 0 104.472 43.177 110.818 98.762 0.216-0.013 0.43-0.033 0.646-0.033 7.054 0 12.824 5.771 12.824 12.823 0.001 7.053-5.772 12.822-12.825 12.822zM124.374 139.48c-46.604 0-84.52 37.915-84.52 84.519s37.916 84.519 84.52 84.519c46.604 0 84.52-37.916 84.52-84.519s-37.915-84.519-84.52-84.519zM387.709 139.48c-46.604 0-84.519 37.915-84.519 84.519s37.915 84.519 84.519 84.519c46.605 0 84.521-37.916 84.521-84.519s-37.917-84.519-84.521-84.519z" />
<glyph unicode="&#xe642;" d="M56.58 243.771v-251.717h82.339v170.803h233.868v-170.803h82.298v251.717l-199.256 126.808zM502.937 291.728l-24.524 15.832-23.021 15.35-0.056 56.288c0 10.943-8.911 19.827-19.86 19.827h-17.432c-10.95 0-19.778-8.883-19.833-19.84l0.027-18.13-0.070 0.042-142.313 94.85-246.786-163.549c-9.184-5.992-11.844-18.234-5.894-27.417l1.571-2.814c5.922-9.198 18.22-11.844 27.417-5.922l223.679 142.778 223.992-143.45c9.19-5.938 21.495-3.282 27.417 5.915l1.579 2.821c5.95 9.198 3.269 21.441-5.893 27.419z" />
<glyph unicode="&#xe643;" d="M0 480v-512h512v512h-512zM254.863 350.001h43.33l21.176-140.771 21.639 140.771h42.83v-192.283h-28.537v144.796l-24.1-144.796h-24.621l-23.172 144.796v-144.529h-28.545v192.016zM128.105 302.514c0 7.857 0 51.439 47.772 51.439 48.979 0 48.979-38.165 48.979-51.439v-13.56h-29.293c0 0 0 7.151 0 13.56 0 7.382 0 25.107-19.181 25.107-18.984 0-18.984-17.48-18.984-25.107 0-5.686 0-85.037 0-94.163 0-14.796 4.571-25.985 18.984-25.985s19.181 10.5 19.181 25.985c0 3.457 0 30.398 0 30.398h-16.725v23.146h46.018v-104.178l-28.315 0.269v10.15c-2.423-3.85-13.81-14.092-30.147-14.057-27.655 0.16-38.289 19.313-38.289 48.498 0 7.647 0 95.721 0 99.937zM384.078 94.047h-256.158v41.591h256.16v-41.591h-0.002z" />
<glyph unicode="&#xe644;" d="M0 247.303c0 16.99 10.562 28.471 30.539 28.471 17.909 0 129.721 0 129.721 0v-24.107c0 0-123.064 0-125.819 0-3.517 0-6.657-1.797-6.657-7.115 0-6.89 0-35.13 0-40.181 0-4.899 2.064-8.035 8.496-8.035 6.426 0 83.114 0 88.624 0 4.667 0 8.266 1.683 8.266 7.806 0 5.51 0 9.413 0 9.413h-51.892v22.959h78.981c0 0 0-19.284 0-36.967 0-17.676-12.858-27.317-33.063-27.317s-76.913 0-96.427 0c-19.518 0-30.766 10.561-30.766 28.237 0.001 17.678-0.003 35.352-0.003 46.836zM275.977 172.227l44.312 78.52v-78.52h27.781v103.546h-42.705l-42.248-74.388-42.244 74.388h-42.707v-103.546h27.783v78.52l44.312-78.52zM512 172.227c-20.204 0-96.659 0-116.176 0-19.519 0-30.768 10.562-30.768 28.238 0 17.68-0.001 35.354-0.001 46.838 0 16.99 10.563 28.471 30.538 28.471 17.906 0 116.405 0 116.405 0v-26.029c0 0-109.746 0-112.501 0-3.52 0-6.661-1.8-6.661-7.12 0-6.884 0-31.288 0-36.336 0-4.897 2.068-8.039 8.494-8.039 6.43 0 105.159 0 110.668 0l0.002-26.023z" />
<glyph unicode="&#xe645;" d="M42.678 480h-28.449v-512h483.543v28.45h-455.094v483.55zM469.322 138.671h-28.422c-15.723 0-28.449-12.728-28.449-28.449v-85.35h85.32v85.349c0 15.722-12.699 28.45-28.449 28.45zM384 223.993c0 15.716-12.699 28.45-28.449 28.45h-28.45c-15.694 0-28.422-12.721-28.422-28.45v-199.122h85.321v199.122zM270.229 337.771c0 15.716-12.727 28.436-28.449 28.436h-28.436c-15.716 0-28.438-12.72-28.438-28.436v-312.9h85.337v312.9h-0.014zM156.45 451.543c0 15.702-12.734 28.443-28.437 28.443h-28.435c-15.702 0-28.45-12.742-28.45-28.443v-426.672h85.336v426.672h-0.014z" />
<glyph unicode="&#xe646;" d="M409.598 259.601h-51.199c-14.125 0-25.6-11.462-25.6-25.601v-197.6h102.4v197.6c0 14.139-11.452 25.601-25.601 25.601zM281.598 413.2h-51.199c-14.135 0-25.601-11.464-25.601-25.601v-351.197h102.401v351.198c0 14.137-11.452 25.6-25.601 25.6zM153.6 336.399h-51.201c-14.136 0-25.599-11.462-25.599-25.6v-274.399h102.399v274.4c0 14.137-11.451 25.599-25.599 25.599zM511.406 480h-511.406v-512h512v512h-0.594zM25.601-6.4v460.798h460.798v-460.798h-460.798z" />
<glyph unicode="&#xe647;" d="M349.431 480c-85.96 0-155.69-71.65-155.69-160.002 0-20.572 4.19-40.022 11.096-58.067l-189.172-194.393c-5.479-5.611-8.853-10.944-8.853-19.563v-47.989c0.001-17.121 14.458-31.986 31.135-31.986h46.715c8.36 0 13.632 3.394 19.083 9.019l22.354 22.969h36.49c17.192 0 31.149 14.325 31.149 32.016v31.974h31.143c17.192 0 31.137 14.341 31.137 32.018v37.502l36.905 37.943c17.567-7.121 36.504-11.429 56.508-11.429 86.019 0 155.757 71.65 155.757 159.987-0.028 88.351-69.74 160.001-155.757 160.001zM74.267 18.871l-20.254 20.267 186.088 186.081 20.268-20.254-186.102-186.094zM379.314 286.888c-31.643 0-57.326 25.664-57.326 57.312 0 31.634 25.685 57.312 57.326 57.312 31.627 0 57.298-25.664 57.298-57.312s-25.643-57.312-57.298-57.312z" />
<glyph unicode="&#xe648;" d="M256 132.247l-132.5 62.713v-88.71c0 0 44.271-58 132.5-58s132.5 58 132.5 58v88.71l-132.5-62.713zM481.477 109.634h-5.5c-18.472 0-33.5 15.028-33.5 33.5v102.544l69.523 32.906-256 121.166-256-121.166 256-121.167 159.477 75.481v-89.765c0-33.359 27.142-60.5 60.5-60.5h5.5c7.456 0 13.5 6.044 13.5 13.5s-6.044 13.501-13.5 13.501z" />
<glyph unicode="&#xe649;" d="M255.997-32c0 0-170.527 160.878-170.527 310.112 0 201.432 164.187 201.888 170.527 201.888s170.533-0.456 170.533-200.839c0-150.283-170.533-311.161-170.533-311.161zM255.997 392.455c-37.668 0-68.201-30.237-68.201-67.497 0-37.253 30.532-67.483 68.201-67.483 37.694 0 68.221 30.229 68.221 67.483 0 37.26-30.527 67.497-68.221 67.497z" />
<glyph unicode="&#xe64a;" d="M464 426.097h-416c-26.527 0-48-22.61-48-50.527v-303.14c0-27.888 21.473-50.526 48-50.526h416c26.528 0 48 22.639 48 50.526v303.14c0 27.916-21.472 50.527-48 50.527zM43.875 55.75l-11.701 12.319 131.965 138.932 11.701-12.333-131.965-138.918zM468.125 55.75l-131.959 138.917 11.709 12.333 131.958-138.931-11.708-12.319zM256 151.667l-223.944 219.291 20.368 21.417 203.576-198.695 203.611 198.695 20.333-21.417-223.944-219.291z" />
<glyph unicode="&#xe64b;" d="M489.186 339.505l-207.944 131.609c-12.549 7.942-33.136 8.030-45.751 0.195l-212.554-132c-12.615-7.834-22.937-26.394-22.937-41.244v-300.194c0-14.851 12.15-27 27-27h458c14.85 0 27 12.149 27 27v300.194c0 14.85-10.267 33.498-22.814 41.44zM459.184 42.461l-19.67-18.496-99.674 105.99-86.321-82.333-85.23 83.257-100.543-106.914-19.669 18.496 100.894 107.287-104.085 101.676-2.191 2c0 17.268 14.128 31.396 31.396 31.396h363.818c17.269 0 31.396-14.128 31.396-31.396 0 0-34.937-33.954-76.835-73.27l-33.093-31.563 99.807-106.13z" />
<glyph unicode="&#xe64c;" d="M125.223 208.939c5.686-5.707 5.7-14.901 0-20.608l-1.764-1.764c-5.693-5.664-14.908-5.664-20.6 0l-17.563 17.562c-5.686 5.706-5.686 14.901 0 20.614l1.765 1.766c5.692 5.699 14.907 5.685 20.6 0l17.562-17.57zM271.829 280.517c0-8.063-6.519-14.573-14.573-14.573h-2.49c-8.033 0.028-14.56 6.54-14.573 14.573v24.827c0 8.048 6.525 14.56 14.56 14.56h2.505c8.054 0 14.559-6.512 14.572-14.573v-24.814h-0.001zM188.461 266.25c4.006-6.98 1.615-15.89-5.351-19.896l-2.156-1.252c-6.981-3.978-15.868-1.572-19.896 5.365l-12.403 21.539c-3.992 6.967-1.601 15.869 5.366 19.889l2.155 1.238c6.98 4.027 15.869 1.608 19.896-5.358l12.389-21.525zM386.848 208.939c-5.664-5.707-5.692-14.901 0-20.608l1.765-1.764c5.722-5.664 14.915-5.664 20.607 0l17.562 17.562c5.692 5.706 5.692 14.901 0 20.614l-1.765 1.766c-5.692 5.699-14.886 5.685-20.606 0l-17.563-17.57zM323.632 266.25c-3.999-6.98-1.622-15.89 5.337-19.896l2.148-1.252c6.974-3.978 15.883-1.572 19.896 5.365l12.409 21.539c3.984 6.967 1.594 15.869-5.351 19.889l-2.164 1.238c-6.974 4.027-15.882 1.608-19.867-5.358l-12.408-21.525zM256.004 371.698c-152.277 0-256.004-117.894-256.004-255.99 0-12.424 0-17.676 0-19.711 0-0.854 0-1.138 0-1.167v-18.528h512v19.696c0 2.092 0 7.4 0 19.725 0 133.783-103.719 255.975-255.996 255.975zM492.304 95.997h-39.336v24.82c0 8.055-6.518 14.573-14.573 14.573h-10.247c-8.055 0-14.573-6.518-14.573-14.573v-24.82h-110.408c0 0.441 0 1.281 0 3.388 0 24.648-19.113 47.163-47.163 47.163-2.349 0-4.533-0.37-6.746-0.654l-25.488 52.529c-3.572 7.2-12.332 10.132-19.511 6.573l-2.249-1.109c-7.216-3.543-10.141-12.311-6.59-19.539l25.667-52.898c-7.721-8.511-12.239-19.839-12.239-32.078 0-2.12 0-2.946 0-3.373h-110.323v24.819c0 8.056-6.525 14.574-14.573 14.574h-10.254c-8.048 0-14.573-6.519-14.573-14.574v-24.819h-39.422c0 2.135 0 7.499 0 19.711 0 130.489 105.797 236.3 236.301 236.3 130.502 0 236.3-105.812 236.3-236.3 0-12.398 0-17.662 0-19.713z" />
<glyph unicode="&#xe64d;" d="M0 345.433v-242.867c0.249 0 0.493-0.002 0.742-0.002 2.84-10.945 13.558-19.148 26.258-19.148 12.402 0 22.915 7.822 26.046 18.383 15.625-0.46 30.73-1.123 45.354-1.962 5.316-20.677 17.822-42.229 35.219-59.739 20.323-20.453 56.379-44.834 112.742-44.834 61.757 0 110.742 29.642 138.902 51.99 19.683-7.209 36.074-14.379 49.486-20.991v386.251c-54.014-28.269-163.56-61.802-381.642-66.515-3.054 10.663-13.626 18.585-26.107 18.585-12.7 0-23.418-8.203-26.258-19.149-0.249 0-0.492-0.002-0.742-0.002zM127.325 97.902c97.968-7.516 172.028-23.187 226.587-40.081-1.165-0.789-2.346-1.58-3.557-2.37-23.216-15.142-60.103-33.188-103.997-33.188-47.076 0-76.878 20.047-93.588 36.865-12.844 12.929-20.909 26.669-25.445 38.774zM458 425.872v-403.744c0-14.85 12.15-27 27-27s27 12.15 27 27v403.744c0 14.85-12.15 27-27 27s-27-12.15-27-27z" />
<glyph unicode="&#xe64e;" d="M359.179 288.919c-3.48 17.929-7.183 31.531-7.183 31.531-13.003 58.125 5.038 132.538-47.998 132.538-51.806 0 15.66-132.309-73.571-157.4-23.894-3.918-38.434-18.514-38.434-58.745v-160.066c0-90.094 71.648-81.547 160.002-81.547 88.369 0 160.004 24.083 160.004 114.177v106.020c0.001 87.97-67.403 74.189-152.82 73.492zM128.006 288.843h-95.989c-17.679 0-32.017-14.61-32.017-32.63v-228.382c0-18.014 14.324-32.602 32.017-32.602h95.989c17.658 0 32.003 14.588 32.003 32.602v228.396c0.001 18.006-14.344 32.616-32.003 32.616zM80.851 48.628c-14.881 0-26.936 12.001-26.936 26.757 0 14.783 12.055 26.77 26.936 26.77s26.958-11.986 26.958-26.77c-0.001-14.757-12.077-26.757-26.958-26.757z" />
<glyph unicode="&#xe64f;" d="M473.955 253.371c2.577-2.312 5.798-3.449 9.007-3.449 3.699 0 7.384 1.514 10.048 4.485 4.978 5.547 4.514 14.078-1.033 19.054l-58.157 52.171-53.335-26.666-140.736-64.71-26.964 36.614h-103.375v53.246h26.735c4.826 0 8.738 3.912 8.738 8.738s-3.912 8.739-8.739 8.739h-70.949c-4.826 0-8.738-3.912-8.738-8.739s3.912-8.738 8.738-8.738h26.737v-53.246h-91.932v-160.402l299.817-4.062 96.256 170.181 33.393 16.695 44.489-39.911zM284.197 133.607l-257.211 3.485v106.792h172.157l31.909-43.33 122.998 56.555-69.853-123.502zM508.299 178.641c-3.028 6.234-21.277 44.017-21.277 44.017s-17.989-37.214-21.279-44.017c-3.287-6.804-11.639-29.725 21.279-29.725 34.289 0 24.302 23.487 21.277 29.725z" />
<glyph unicode="&#xe650;" d="M370.52 480c-0.007 0-0.013 0-0.020 0h-242.5c-7.456 0-13.5-6.044-13.5-13.5s6.044-13.5 13.5-13.5h229.001v-26.5h-101.001c-4.694 0-8.5-3.806-8.5-8.5s3.806-8.5 8.5-8.5h101.001v-31.5h-101.001c-4.694 0-8.5-3.806-8.5-8.5s3.806-8.5 8.5-8.5h101.001v-31.5h-101.001c-4.694 0-8.5-3.806-8.5-8.5s3.806-8.5 8.5-8.5h101.001v-31.5h-101.001c-4.694 0-8.5-3.806-8.5-8.5s3.806-8.5 8.5-8.5h101.001v-26.5h-229.001c-7.456 0-13.5-6.044-13.5-13.5s6.044-13.5 13.5-13.5h229.001v-26.5h-101.001c-4.694 0-8.5-3.807-8.5-8.5s3.806-8.5 8.5-8.5h101.001v-31.5h-101.001c-4.694 0-8.5-3.807-8.5-8.5s3.806-8.5 8.5-8.5h101.001v-31.5h-101.001c-4.694 0-8.5-3.806-8.5-8.5s3.806-8.5 8.5-8.5h101.001v-31.5h-101.001c-4.694 0-8.5-3.806-8.5-8.5s3.806-8.5 8.5-8.5h101.001v-26.5h-229.001c-7.456 0-13.5-6.044-13.5-13.5s6.044-13.5 13.5-13.5h256v512h-13.48z" />
<glyph unicode="&#xe651;" d="M63.903 224.349v0.571c0 56.847 44.849 103.408 106.55 103.408s105.979-45.991 105.979-102.837v-0.571c0-56.836-44.848-103.398-106.551-103.398-61.701-0.001-105.978 45.989-105.978 102.827zM230.44 224.349v0.571c0 34.279-25.137 62.845-60.56 62.845-35.42 0-59.987-27.993-59.987-62.273v-0.571c0-34.269 25.137-62.834 60.56-62.834s59.987 27.992 59.987 62.262zM294.438 278.052h43.416v-21.709c9.999 12.855 22.854 24.566 44.85 24.566 32.85 0 51.988-21.71 51.988-56.847v-99.113h-43.417v85.402c0 20.567-9.714 31.135-26.282 31.135-16.566 0-27.139-10.567-27.139-31.135v-85.402h-43.416v153.103zM386.517 290.764l-31.414 22.045-31.848-21.416 11.291 36.636-30.243 23.62 38.396 0.599 13.153 36.019 12.435-36.27 38.374-1.359-30.709-23.017zM256 480c-141.386 0-256-114.614-256-256s114.614-256 256-256 256 114.615 256 256c0 141.386-114.615 256-256 256zM254.962-18.188c-132.967 0-241.144 108.096-241.144 240.961 0 132.87 108.177 240.967 241.144 240.967s241.144-108.097 241.144-240.967c-0.001-132.865-108.176-240.961-241.144-240.961z" />
<glyph unicode="&#xe652;" d="M511.869 285.564c-0.036 4.269-0.438 8.673-1.033 13.104-2.28 16.917-8.193 33.985-14.583 45.307-1.804 3.215-3.634 6.118-5.409 8.227-1.884 2.2-4.217 4.248-6.763 6.218-0.396 0.312-0.809 0.637-1.22 0.935-2.558 1.876-5.436 3.639-8.591 5.31-0.529 0.285-1.062 0.557-1.617 0.828-3.313 1.697-6.867 3.309-10.712 4.807-0.106 0.039-0.267 0.093-0.371 0.146-3.965 1.524-8.175 2.949-12.575 4.275-0.339 0.113-0.662 0.22-1 0.312-4.415 1.319-9.057 2.525-13.821 3.672-0.53 0.12-1.047 0.239-1.578 0.365-4.872 1.127-9.896 2.194-15.026 3.162-0.119 0.013-0.245 0.040-0.365 0.065-10.738 1.995-21.954 3.665-33.263 5.024-0.271 0.027-0.544 0.065-0.814 0.093-46.043 5.502-93.346 6.231-115.009 6.231-7.689 0-12.163-0.080-12.163-0.080s-4.441 0.080-12.124 0.080c-10.839 0-28.093-0.172-48.396-1.040-0.087 0-0.166 0-0.246-0.021-4.985-0.212-10.142-0.471-15.438-0.77-0.219-0.013-0.432-0.025-0.637-0.040-10.453-0.597-21.411-1.412-32.501-2.459-0.451-0.040-0.896-0.080-1.359-0.126-5.276-0.498-10.559-1.067-15.843-1.697-0.703-0.080-1.412-0.159-2.115-0.252-5.323-0.643-10.632-1.345-15.868-2.135-0.26-0.025-0.505-0.080-0.75-0.105-5.091-0.775-10.129-1.632-15.053-2.54-0.558-0.1-1.114-0.191-1.657-0.298-4.859-0.915-9.612-1.929-14.226-2.989-0.802-0.191-1.591-0.364-2.379-0.57-4.56-1.101-9.002-2.254-13.238-3.513-0.556-0.166-1.067-0.338-1.598-0.504-4.116-1.253-8.066-2.579-11.786-4.018-0.298-0.113-0.623-0.219-0.922-0.325-3.745-1.471-7.198-3.042-10.468-4.7-0.608-0.312-1.226-0.623-1.822-0.935-3.108-1.656-5.946-3.394-8.485-5.256-0.444-0.325-0.842-0.664-1.272-0.987-2.552-1.969-4.872-4.011-6.735-6.204-1.789-2.108-3.612-5.012-5.415-8.2-6.384-11.309-12.291-28.392-14.57-45.308-0.624-4.641-1.055-9.254-1.042-13.708 0-0.093-0.013-0.198-0.013-0.277h0.178c0.982-13.965 12.705-25.088 26.909-25.088h75.090c14.203 0 25.927 11.123 26.909 25.088h0.056c0.025 0.107 0.052 0.188 0.084 0.279 1.398 5.131 3.010 9.824 5.29 13.748 1.551 2.624 3.341 4.972 5.8 6.629 5.482 3.685 17.438 6.481 31.734 8.701v-26.432c-5.481-6.591-85.888-104.293-85.888-165.685 0-23.564-0.002-33.164-0.004-35.923l0.004-4.646c0-14.841 12.143-26.984 26.983-26.984h285.55c14.841 0 26.984 12.144 26.984 26.984l0.013 4.624c-0.008 2.809-0.014 12.439-0.014 35.931 0 63.71-86.181 166.089-86.181 166.089l-0.047 0.007v26.063l0.047-0.006c14.404-2.147 26.556-4.985 32.037-8.71 2.461-1.657 4.236-4.018 5.787-6.642 2.279-3.874 3.877-8.546 5.282-13.64 0.274-14.608 12.301-26.476 26.972-26.476h75.442c14.841 0 26.983 12.143 26.983 26.984h-0.129zM255.996 103.74c-37.85 0.025-68.561 30.729-68.561 68.54 0 37.915 30.724 68.566 68.561 68.541 2.155 0 4.188-0.412 6.297-0.637 2.526-0.228 5.104-0.254 7.55-0.758 0.474-0.092 0.883-0.305 1.354-0.423 30.545-6.908 53.367-34.099 53.367-66.725-0.014-37.808-30.699-68.538-68.568-68.538zM311.504 291.723h-111.131l-1.339-0.181v25.567c31.082 2.255 82.2 2.259 113.431-0.007v-25.509l-0.961 0.13zM297.684 172.28c0-23.022-18.663-41.684-41.684-41.684s-41.684 18.663-41.684 41.684c0 23.022 18.662 41.684 41.684 41.684s41.684-18.663 41.684-41.684z" />
<glyph unicode="&#xe653;" d="M512 256.475h-182.635c-16.829 74.538-91.985 130.67-204.521 130.709-5.048-0.040-9.522-23.38-12.51-59.92l-112.33-0.077v-71.248h109.039c-0.19-10.33-0.307-20.966-0.345-31.95 0.038-10.907 0.115-21.6 0.299-31.93l-108.997-0.078v-71.284l112.287 0.038c2.994-36.617 7.459-59.92 12.472-59.92 112.568 0.041 187.793 56.171 204.633 130.749l182.584-0.077v64.988h0.024z" />
<glyph unicode="&#xe654;" d="M257.438 480c-66.331 0-120.112-70.216-120.112-156.84 0-86.633 53.781-156.85 120.112-156.85 66.333 0 120.104 70.217 120.104 156.85 0 86.624-53.772 156.84-120.104 156.84zM449.053 91.322c-29.577 19.589-114.776 32.593-114.776 32.593s-55.252-58.637-78.679-58.637c-23.473 0-78.679 58.637-78.679 58.637s-85.199-13.004-114.768-32.593c-29.567-19.57-42.636-123.322-42.636-123.322h472.971c-0.001 0-8.657 100.293-43.433 123.322z" />
<glyph unicode="&#xe655;" d="M467.913 224.226h-112.798c-5.18 0-9.738-3.345-11.237-8.226l-17.893-58.795v311.247c0 5.928-4.583 10.904-10.596 11.5-0.392 0.024-0.779 0.048-1.154 0.048-5.518 0-10.38-3.833-11.501-9.286l-76.078-374.481v246.036c0 5.439-3.852 10.13-9.25 11.285-0.833 0.179-1.667 0.261-2.488 0.261-4.512 0-8.737-2.571-10.679-6.761l-56.794-122.828h-123.528c-6.476 0-11.726-5.167-11.726-11.546 0-6.383 5.25-11.549 11.726-11.549h131.071c4.613 0 8.785 2.656 10.684 6.764l37.511 81.115v-309.462c0-5.928 4.577-10.902 10.583-11.498 0.394-0.023 0.792-0.049 1.178-0.049 5.523 0 10.38 3.834 11.5 9.285l76.072 374.506v-273.319c0-5.729 4.28-10.596 10.019-11.43 0.589-0.094 1.179-0.131 1.762-0.131 5.119 0 9.696 3.311 11.202 8.227l38.374 125.994h104.117c-2.213 3.357-3.534 7.332-3.534 11.607-0.001 4.225 1.297 8.164 3.457 11.486zM486.191 226.153c-7.523 0-13.618-5.999-13.618-13.415 0-7.395 6.095-13.404 13.618-13.404 7.518 0 13.617 6.012 13.617 13.404 0.002 7.416-6.099 13.415-13.617 13.415z" />
<glyph unicode="&#xe656;" d="M506.192 451.647c0.968 15.762-14.857 18.606-25.005 16.693-10.176-1.85-81.56-42.581-124.112-44.508-42.735-1.793-123.258 51.012-185.321 55.645-62.069 4.653-108.414-23.246-108.414-23.246 0 0.386 0 0.441 0 0.988 0 6.602-14.598 12.86-27.801 13.021-16.812 0.155-30.443-11.991-30.576-14.773-0.4-6.272-1.906-469.877 1.808-475.454 3.72-5.579 12.088-12.013 25.936-12.013 25.72 0 27.086 16.777 27.871 17.591l1.78 133.405c0 0 54.685 24.164 105.668 26.883 50.935 2.733 114.918-42.566 196.38-54.648 81.518-12.082 140.833 56.526 142.754 66.675 1.85 10.175-1.921 278.015-0.968 293.741zM75.61 315.845c0-7.043-9.979-12.79-22.25-12.79-12.285 0-22.188 5.747-22.188 12.79v103.727c0 7.050 9.888 12.79 22.188 12.79 12.271 0 22.25-5.739 22.25-12.79v-103.727z" />
<glyph unicode="&#xe657;" d="M435.238 279.355h-19.642c0.070 22.856 0.099 41.105 0.099 41.105 0 87.959-71.574 159.54-159.511 159.54-87.882 0-159.358-71.405-159.534-159.209h-0.042l-0.085-41.436h-19.782c-27.057 0-48.984-23.138-48.984-51.609v-208.138c0-28.506 21.928-51.608 48.984-51.608h358.496c27.1 0 49.006 23.117 49.006 51.608v208.138c0.029 28.457-21.906 51.609-49.005 51.609zM296.831 50.436h-81.634l19.382 71.054c-11.587 7.204-19.382 19.966-19.382 34.612 0 22.526 18.284 40.803 40.817 40.803 22.54 0 40.817-18.276 40.817-40.803 0-14.675-7.78-27.407-19.374-34.612l19.374-71.054zM356.699 279.355h-201.277c0.069 22.020 0.084 39.825 0.111 41.105 0 55.485 45.158 100.629 100.65 100.629 55.464 0 100.601-45.158 100.601-100.629l-0.085-41.105z" />
<glyph unicode="&#xe658;" d="M496.563 328.487l-63.471-22.864c-12.725-4.533-26.947 2.151-31.516 14.883l-23.529 65.936c-4.584 12.732 2.088 26.906 14.881 31.426l63.398 22.745c12.74 4.583 13.441 13.454 1.416 19.732 0 0-64.141 33.753-112.18 16.551-47.887-17.14-78.996-59.356-85.191-106.534 0 0-2.803-26.71 4.82-54.633l-62.445-62.411c-19.186-19.128-50.57-50.519-69.671-69.691l-118.718-118.671c-19.143-19.199-19.143-50.534 0-69.706l14.609-14.616c19.158-19.199 50.499-19.199 69.656-0.112l118.719 118.796c19.087 19.144 34.825 34.853 34.825 34.853 0 0.056 15.703 15.695 34.832 34.825l60.848 60.798c26.99-9.354 57.094-10.152 86.131 0.231 47.842 17.194 76.066 83.817 76.15 83.992v0c5.228 12.473-0.869 18.983-13.564 14.47z" />
<glyph unicode="&#xe659;" d="M458.36 226.883c-6.836 3.745-11.479 10.541-12.468 18.279-1.524 11.932-4.16 23.52-7.825 34.428-2.475 7.411-1.271 15.547 3.264 21.904l35.516 49.747-21.497 27.001c-0.213 0.243-0.428 0.491-0.628 0.752l-21.615 27.094-56.369-23.596c-7.156-2.993-15.329-2.401-21.979 1.611-10.312 6.217-21.282 11.464-32.571 15.594-7.344 2.679-12.948 8.719-15.075 16.233l-16.066 56.693h-70.067l-16.052-56.62c-2.12-7.477-7.699-13.513-15.002-16.195-11.457-4.227-22.458-9.514-32.718-15.704-6.662-4.006-14.829-4.611-21.992-1.611l-56.375 23.595-21.61-27.094c-0.234-0.294-0.469-0.575-0.715-0.863l-0.201-0.227-21.215-26.656 35.589-49.831c4.535-6.354 5.745-14.5 3.264-21.907-3.666-10.906-6.294-22.439-7.826-34.302-0.997-7.711-5.61-14.477-12.426-18.225l-53.701-29.503 7.491-32.92c0.173-0.549 0.32-1.123 0.447-1.686l7.679-33.749 61.13-3.217c7.819-0.423 14.976-4.568 19.209-11.156 6.186-9.638 13.57-18.921 21.964-27.603 5.397-5.593 7.805-13.424 6.481-21.082l-10.447-60.254 30.411-14.675c0.542-0.214 1.084-0.447 1.599-0.703l31.167-15.048 40.691 45.828c5.183 5.832 12.822 8.842 20.634 8.066 11.597-1.165 23.575-1.15 35.065 0 0.844 0.065 1.658 0.111 2.461 0.111 6.916 0 13.552-2.947 18.205-8.186l40.691-45.835 31.168 15.049c0.521 0.261 1.057 0.495 1.605 0.709v0.007l30.403 14.667-10.434 60.343c-1.324 7.65 1.070 15.482 6.475 21.067 8.105 8.394 15.569 17.75 22.231 27.804 4.254 6.439 11.316 10.479 19.021 10.889l61.051 3.217 7.704 33.902c0.055 0.24 0.107 0.469 0.147 0.703l7.751 33.807-53.64 29.348zM255.935 124c-55.132 0-99.985 44.859-99.985 100 0 55.14 44.853 100 99.985 100 55.204 0 100.116-44.86 100.116-100 0-55.141-44.912-100-100.116-100z" />
<glyph unicode="&#xe65a;" d="M512 403.194h-371.864l-12.132 50.598v0.596h-128.004c0 0 0-51.194 25.601-51.194h60.59l67.399-280.964v-0.637c0 0 259.098 0 281.602 0 25.621 0 25.621 51.188 25.621 51.188h-265.41l-6.146 25.607h271.555l51.188 204.806zM204.813 95.986c-28.282 0-51.194-22.92-51.194-51.188 0-28.282 22.926-51.188 51.194-51.188 28.261 0 51.194 22.904 51.194 51.188 0 28.268-22.934 51.188-51.194 51.188zM384.018 95.986c-28.297 0-51.216-22.92-51.216-51.188 0-28.282 22.92-51.188 51.216-51.188 28.268 0 51.174 22.904 51.174 51.188 0.013 28.268-22.907 51.188-51.174 51.188z" />
<glyph unicode="&#xe65b;" d="M255.992 461.733l84.384-149.435 171.624-32.191-119.48-124.543 21.688-169.297-158.216 72.445-158.216-72.444 21.689 169.297-119.465 124.542 171.609 32.191 84.383 149.435z" />
<glyph unicode="&#xe65c;" d="M255.75 479.748c-141.159 0-256-114.838-256-256s114.841-256 256-256c141.162 0 256 114.838 256 256s-114.838 256-256 256zM255.75-1.222c-124.049 0-224.97 100.919-224.97 224.97 0 124.048 100.92 224.97 224.97 224.97 124.049 0 224.97-100.921 224.97-224.97s-100.921-224.97-224.97-224.97zM281.352 234.359v102.988c0 14.138-11.463 25.6-25.601 25.6s-25.6-11.462-25.6-25.6v-113.587c-0.001-1.688 0.171-3.374 0.506-5.024 0.141-0.726 0.417-1.4 0.625-2.113 0.256-0.887 0.468-1.8 0.828-2.675 0.337-0.813 0.807-1.563 1.228-2.325 0.378-0.688 0.678-1.413 1.125-2.073 0.859-1.275 1.844-2.464 2.913-3.564 0.103-0.111 0.167-0.236 0.27-0.337l102.398-102.399c9.994-10 26.208-10 36.2 0 9.994 10 9.994 26.199 0 36.199l-94.892 94.91z" />
<glyph unicode="&#xe65d;" d="M423.882 139.564l0.060 0.059-59.351 59.355c-15.36 15.36-39.964 16.188-56.328 2.498l-14.976 14.975 0.044 0.045-211.226 211.222-4.93 19.071-47.35 33.211-29.696-29.693 33.211-47.351 19.071-4.931 147.33-147.328c-0.015-0.015-0.029-0.029-0.044-0.044l78.888-78.887c-13.438-16.367-12.526-40.775 2.743-56.048l1.418-1.42c1.002-1.228 2.072-2.418 3.214-3.563l40.924-40.859-0.028-0.029 74.654-74.66 83.283 83.285-60.911 61.092zM499.617 63.598l-83.262-83.26 0.153-0.154c16.247-16.243 42.831-16.246 59.076 0.004l24.187 24.181c16.243 16.246 16.246 42.834 0 59.076l-0.154 0.153zM184.84 235.819c-17.080-17.065-36.823-36.829-50.34-50.395l-33.412-33.396c-1.021-0.844-2.016-1.737-2.969-2.688l-85.892-85.893c-16.246-16.246-16.246-42.83 0.001-59.074l24.183-24.187c16.245-16.243 42.831-16.243 59.075 0l1.419 1.421c1.228 1.002 2.418 2.071 3.564 3.215l117.261 117.333c14.034 14.073 26.229 26.266 31.548 31.579-0.507 2.791-0.833 5.627-0.96 8.498-0.399 8.922 1.083 17.711 4.27 25.838l-67.748 67.749zM311.913 227.52c7.339 2.913 15.231 4.445 23.252 4.445 3.857 0 7.656-0.359 11.37-1.031l0.093 0.093c0.224-0.077 0.446-0.148 0.67-0.224 3.789-0.735 7.479-1.824 11.039-3.229 23.503-5.777 48.816-5.097 73.364 3.682 47.257 16.981 78.324 82.785 78.406 82.958 5.164 12.319-0.857 18.749-13.396 14.291l-62.691-22.585c-12.566-4.477-26.615 2.125-31.13 14.7l-26.429 65.126c-4.529 12.576 2.062 26.576 14.695 31.042l62.619 22.463c12.583 4.527 13.274 13.289 1.396 19.49 0 0-63.351 33.338-110.799 16.348-47.3-16.93-78.025-58.625-84.146-105.226 0 0-2.767-26.382 4.765-53.961l-20.736-20.726 67.658-67.656z" />
<glyph unicode="&#xe65e;" d="M511.501 326.398c0 0 1.609-1.194-3.636 9.353-5.301 10.552-30.499 11.788-39.436 12.599-8.923 0.825-9.769-15.049-9.769-15.049l-10.962-0.395c-17.456 41.447-49.565 80.467-51.592 82.478-2.080 2.067-6.938 4.482-6.938 4.482-13.377 3.649-132.058 6.092-132.058 6.092h-0.319c0 0-0.29-0.014-0.818-0.028-0.528 0.014-0.798 0.028-0.798 0.028h-0.326c0 0-118.674-2.442-132.057-6.092 0 0-4.885-2.449-6.904-4.482-2.060-2.026-34.163-41.045-51.626-82.478l-10.954 0.395c0 0-0.819 15.86-9.762 15.049-8.936-0.812-34.128-2.047-39.415-12.599-5.287-10.546-3.649-9.353-3.649-9.353s-2.442-5.71 3.649-6.903c6.099-1.194 38.194-5.287 50.398-8.943 0 0-8.534-14.632-13.834-29.25-5.287-14.653-7.702-15.479-9.339-20.321 0 0-0.825-2.060-1.221-6.507-0.256-2.831-0.395-119.618-0.395-134.771 0-15.18 21.043-34.717 21.043-34.717l0.493-49.565c0 0-0.424-13.377 8.943-13.377 9.332 0 58.112 0 58.112 0s6.904 3.247 6.904 10.157 0.797 42.544 0.797 42.544h259.917c0 0 0.819-35.661 0.819-42.544 0-6.881 6.896-10.157 6.896-10.157s48.789 0 58.085 0c9.381 0 8.978 13.377 8.978 13.377l0.486 49.565c0 0 21.008 19.537 21.008 34.717 0 15.153-0.152 131.94-0.389 134.771-0.388 4.447-1.193 6.507-1.193 6.507-1.638 4.842-4.052 5.668-9.353 20.321-5.301 14.604-13.82 29.25-13.82 29.25 12.197 3.657 44.277 7.729 50.397 8.943 6.122 1.207 3.638 6.903 3.638 6.903zM123.265 400.808c0.95 1.568 3.081 2.588 3.935 2.671 31.359 3.469 113.089 4.419 124.911 4.565 0-0.014 0-0.028 0-0.028 1.706 0.014 2.997 0.028 3.879 0.042 0.887-0.014 2.164-0.028 3.884-0.042 0 0 0 0.014 0 0.028 11.822-0.16 93.552-1.11 124.912-4.565 0.859-0.084 2.969-1.124 3.913-2.671 5.703-9.332 30.138-44.84 48.939-86.6 0 0-136.553 4.474-178.819 4.87h-2.441c-0.112 0-0.277 0-0.388 0s-0.271 0-0.396 0h-2.435c-42.266-0.395-178.82-4.87-178.82-4.87 18.802 41.773 43.224 77.268 48.926 86.6zM100.384 204.262c0-6.453-5.252-11.711-11.704-11.711h-34.031c-6.466 0-11.697 5.258-11.697 11.711v39.456c0 6.445 5.231 11.704 11.697 11.704h34.031c6.466 0 11.704-5.259 11.704-11.704v-39.456zM396.469 173.234h-280.994v13.793h280.995l-0.001-13.793zM396.469 206.718h-280.994v13.765h280.995l-0.001-13.765zM396.469 239.194h-280.994v13.772h280.995l-0.001-13.772zM469.027 243.718v-39.456c0-6.438-5.26-11.698-11.712-11.698h-34.037c-6.468 0-11.698 5.259-11.698 11.698v39.456c0 6.445 5.23 11.704 11.698 11.704h34.037c6.453 0.001 11.712-5.259 11.712-11.704z" />
<glyph unicode="&#xe65f;" d="M297.090 319.882c-35.234 40.771-94.913 67.282-172.242 67.312-5.047-0.041-9.522-23.381-12.51-59.925l-112.334-0.078v-71.25h109.043c-0.191-10.329-0.307-20.967-0.345-31.949 0.039-10.909 0.116-21.603 0.299-31.934l-109.001-0.077v-71.289l97.934 0.035 199.156 199.155zM343.29 256.478l-194.762-194.764c99.344 7.367 165.255 60.653 180.881 129.852l182.591-0.078v64.989h-168.71zM471.128 415.039l-24.087 24.070-406.15-406.15 24.081-24.072z" />
<glyph unicode="&#xe660;" d="M58.816 288.793c0.455 0.739 1.467 1.221 1.888 1.277 14.137 1.564 49.153 2.050 58.765 2.156 4.513 0.984 8.905 1.359 12.229 1.643 0.529 0.045 1.004 0.085 1.415 0.124l0.055 0.006 0.055 0.005c0.496 0.043 0.997 0.064 1.49 0.064 2.507 0 4.854-0.533 6.975-1.524 1.453 2.625 2.947 5.177 4.447 7.636-12.771 0.394-23.598 0.614-23.598 0.614h-0.176c0 0-57.375-1.168-63.77-2.928 0 0-2.33-1.171-3.296-2.12-0.972-0.98-16.293-19.593-24.633-39.363l-5.233 0.21c0 0-0.396 7.537-4.656 7.165-4.269-0.409-16.287-0.967-18.815-6.018-2.516-5.034-1.725-4.463-1.725-4.463s-1.168-2.712 1.725-3.271c2.917-0.59 18.238-2.521 24.048-4.268 0 0-4.065-6.983-6.587-13.983-2.526-6.986-3.685-7.347-4.478-9.695 0 0-0.375-0.969-0.564-3.117-0.206-2.107 2.316-81.229 2.316-81.229s-0.195-6.371 4.261-6.371c4.461 0 19.971 0 19.971 0s3.306 1.525 3.306 4.811c0 3.301 0.385 7.189 0.385 7.189h71.435c-2.532 80.218-2.398 84.174-2.296 85.28 0.301 3.381 0.921 5.621 1.347 6.831 0.774 2.25 1.7 3.835 2.379 4.998 0.727 1.246 1.551 2.657 3.021 6.724 0.315 0.876 0.649 1.748 0.993 2.612-20.244-0.187-86.014-2.31-86.014-2.31 8.964 19.908 20.614 36.855 23.335 41.315zM53.96 220.453c0 0 5.948-2.957 7.498-14.361v-4.148c0 0-0.352-1.102-1.542-1.008-1.215 0.1-20.562 1.42-27.011 2.965-6.471 1.563-9.837 4.123-10.345 12.277 0 0-0.030 5.215 0.126 6.072 0.136 0.9 3.876 9.060 11.626 6.49 7.76-2.606 19.648-8.287 19.648-8.287zM511.769 253.278c0 0 0.771-0.571-1.737 4.463-2.521 5.053-14.545 5.609-18.799 6.018-4.289 0.382-4.675-7.165-4.675-7.165l-5.229-0.21c-8.353 19.771-23.658 38.383-24.64 39.363-0.971 0.955-3.28 2.12-3.28 2.12-6.398 1.76-63.775 2.928-63.775 2.928h-0.176c0 0-10.824-0.221-23.593-0.613 1.496-2.456 2.986-5.006 4.438-7.632 2.121 0.989 4.469 1.521 6.979 1.521 0.505 0 1.019-0.022 1.525-0.068l0.043-0.003 0.043-0.004c0.409-0.039 0.887-0.079 1.414-0.124 3.33-0.284 7.735-0.66 12.26-1.65 10.438-0.122 44.263-0.625 58.12-2.148 0.412-0.063 1.427-0.538 1.871-1.277 2.716-4.462 14.379-21.407 23.341-41.315 0 0-64.495 2.077-85.402 2.304 0.344-0.868 0.68-1.743 0.997-2.624 1.45-4.043 2.271-5.445 2.993-6.683 0.686-1.173 1.616-2.766 2.386-5.034 0.457-1.29 1.075-3.556 1.354-6.881 0.089-1.003 0.223-4.749-2.296-85.216h71.431c0 0 0.393-3.877 0.393-7.189 0-3.285 3.285-4.813 3.285-4.813s15.508 0 19.975 0c4.468 0 4.281 6.371 4.281 6.371s2.502 79.131 2.31 81.23c-0.179 2.148-0.568 3.115-0.568 3.115-0.771 2.349-1.951 2.7-4.463 9.696-2.521 6.993-6.584 13.983-6.584 13.983 5.803 1.745 21.123 3.678 24.028 4.268 2.919 0.552 1.75 3.269 1.75 3.269zM488.954 222.236c0.152-0.855 0.139-6.070 0.139-6.070-0.516-8.154-3.869-10.717-10.336-12.277-6.471-1.545-25.807-2.867-27.035-2.967-1.215-0.092-1.539 1.010-1.539 1.010v4.148c1.539 11.41 7.486 14.359 7.486 14.359s11.896 5.683 19.654 8.284c7.774 2.574 11.492-5.584 11.631-6.487zM385.275 227.438c-0.214 2.572-0.684 3.73-0.684 3.73-0.921 2.808-2.334 3.229-5.337 11.6-3.017 8.366-7.877 16.729-7.877 16.729 6.94 2.088 25.27 4.399 28.746 5.105 3.495 0.66 2.098 3.912 2.098 3.912s0.031-0.023 0.063-0.023c0.143 0 0.303 0.453-2.146 5.363-3.018 6.045-17.398 6.711-22.489 7.199-0.127 0.012-0.251 0.017-0.371 0.017-4.781 0.001-5.221-8.589-5.221-8.589l-6.258-0.25c-9.99 23.652-28.304 45.92-29.478 47.092-1.16 1.144-3.924 2.537-3.924 2.537-7.655 2.105-76.301 3.503-76.301 3.503h-0.21c0 0-68.641-1.397-76.292-3.503 0 0-2.788-1.401-3.944-2.537-1.163-1.172-19.492-23.439-29.47-47.092l-6.261 0.25c0 0-0.45 8.588-5.21 8.588-0.117 0-0.237-0.005-0.36-0.016-5.107-0.489-19.485-1.156-22.51-7.199-2.454-4.909-2.278-5.363-2.13-5.363 0.034 0 0.066 0.023 0.066 0.023s-1.398-3.244 2.064-3.912c3.491-0.706 21.819-3.016 28.771-5.105 0 0-4.863-8.354-7.881-16.729-3.022-8.358-4.408-8.791-5.356-11.6 0 0-0.449-1.158-0.675-3.73-0.246-2.521 2.771-97.179 2.771-97.179s-0.233-7.623 5.098-7.623c5.337 0 23.892 0 23.892 0s3.955 1.826 3.955 5.756c0 3.947 0.46 8.602 0.46 8.602h186.216c0 0 0.469-4.637 0.469-8.602 0-3.93 3.933-5.756 3.933-5.756s18.551 0 23.896 0 5.122 7.623 5.122 7.623 2.995 94.671 2.765 97.179zM183.028 207.1c0 0-0.388-1.213-1.678-1.213-0.055 0-0.111 0.002-0.168 0.006-1.454 0.119-24.599 1.699-32.314 3.551-7.743 1.865-11.769 4.932-12.376 14.687 0 0-0.036 6.238 0.151 7.264 0.141 0.934 3.509 8.36 10.415 8.361 1.078 0 2.242-0.181 3.494-0.596 9.284-3.117 23.506-9.915 23.506-9.915s7.116-3.538 8.97-17.182v-4.963zM254.941 264.341c-24.122-0.218-102.991-2.764-102.991-2.764 10.725 23.816 24.662 44.091 27.917 49.428 0.544 0.886 1.755 1.462 2.259 1.528 19.695 2.181 73.267 2.609 73.267 2.609h0.481c0 0 53.545-0.44 73.271-2.609 0.491-0.074 1.705-0.643 2.238-1.528 3.248-5.337 17.201-25.611 27.922-49.428 0 0-78.85 2.539-102.976 2.764h-1.388zM375.094 224.116c-0.618-9.756-4.63-12.821-12.363-14.688-7.742-1.85-30.876-3.432-32.346-3.549-0.059-0.006-0.116-0.008-0.171-0.008-1.313 0-1.671 1.215-1.671 1.215v4.963c1.842 13.651 8.957 17.181 8.957 17.181s14.231 6.798 23.514 9.911c1.258 0.416 2.427 0.598 3.508 0.598 6.918 0 10.264-7.427 10.406-8.36 0.183-1.025 0.166-7.263 0.166-7.263z" />
<glyph unicode="&#xe661;" d="M255.954 50.887c-56.455 23.178-99.228 61.156-120.481 107.037-22.696 49.045-24.858 127.083-23.989 170.951 65.739 7.701 116.37 35.292 147.937 57.758 29.002-22.466 76.436-50.024 141.017-57.732 0.975-44.549-1.037-123.735-23.877-173.202-20.904-45.068-62.584-81.285-120.607-104.812zM473.595 393.814c-135.269 0-212.059 86.186-212.059 86.186s-87.884-86.186-223.132-86.186c0 0-13.775-169.771 31.354-267.271 31.467-67.996 95.086-125.691 186.221-158.543 91.174 32.852 154.808 87.873 186.283 155.881 45.109 97.515 31.333 269.933 31.333 269.933zM406.537 140.008c-26.092-56.27-78.122-101.498-150.583-130.865-70.515 28.93-123.914 76.359-150.459 133.652-28.322 61.223-31.036 158.689-29.961 213.477 82.099 9.615 145.324 44.062 184.735 72.109 36.229-28.047 95.45-62.463 176.109-72.083 1.2-55.626-1.313-154.521-29.841-216.29z" />
</font>
</defs>
</svg>
